<svg width="28" height="28" viewBox="0 0 28 28" fill="none" xmlns="http://www.w3.org/2000/svg">
<path fill-rule="evenodd" clip-rule="evenodd" d="M14 28C21.732 28 28 21.732 28 14C28 6.26801 21.732 0 14 0C6.26801 0 0 6.26801 0 14C0 21.732 6.26801 28 14 28ZM20.5455 20.0909V17.9091H22V16.4545H17.6364V17.9091H19.0909V20.0909H20.5455ZM8.90909 20.0909V17.9091H10.3636V16.4545H6V17.9091H7.45455V20.0909H8.90909ZM13.2727 7V9.18182H11.8182V10.6364H16.1818V9.18182H14.7273V7H13.2727ZM14.7273 12.0909H13.2727V20.0909H14.7273V12.0909ZM7.45455 7V15H8.90909V7H7.45455ZM19.0909 7V15H20.5455V7H19.0909Z" fill="#F8F3F7"/>
</svg>
