<svg width="28" height="28" viewBox="0 0 28 28" fill="none" xmlns="http://www.w3.org/2000/svg">
<path fill-rule="evenodd" clip-rule="evenodd" d="M28 14C28 21.732 21.732 28 14 28C6.26801 28 0 21.732 0 14C0 6.26801 6.26801 0 14 0C21.732 0 28 6.26801 28 14ZM12 19L16.6667 16.3333L12 13.6667V19ZM7.33333 22.3333H20.6667C21.0202 22.333 21.3591 22.1924 21.6091 21.9424C21.8591 21.6924 21.9996 21.3535 22 21V11.6667C21.9996 11.3132 21.8591 10.9742 21.6091 10.7242C21.3591 10.4743 21.0202 10.3337 20.6667 10.3333H7.33333C6.97982 10.3337 6.64089 10.4743 6.39091 10.7242C6.14094 10.9742 6.00035 11.3132 6 11.6667V21C6.00035 21.3535 6.14094 21.6924 6.39091 21.9424C6.64089 22.1924 6.97982 22.333 7.33333 22.3333ZM7.33333 21V11.6667H20.6667V21H7.33333ZM20.6667 7.66667H7.33333V9H20.6667V7.66667ZM19.3333 5H8.66667V6.33333H19.3333V5Z" fill="#F8F3F7"/>
</svg>
